<?xml version="1.0" encoding="UTF-8"?>
<svg id="Warstwa_1" data-name="Warstwa 1" xmlns="http://www.w3.org/2000/svg" viewBox="0 0 283.46 106.92">
  <defs>
    <style>
      .cls-1 {
        fill: #70a82e;
      }

      .cls-2 {
        fill: #3a3f3a;
      }
    </style>
  </defs>
  <g>
    <path class="cls-2" d="M45.64,35.08v26.2c0,.2-.03.79-.08,1.58-.17,1.66-.6,3.25-1.27,4.71-2.41,5.38-7.81,9.13-14.09,9.13-8.52,0-15.43-6.9-15.43-15.42v-26.23c.01-8.5,6.93-15.39,15.43-15.39s15.43,6.9,15.43,15.42Z"/>
    <path class="cls-2" d="M56.09,47.73v14.54c0,.29,0,.6-.03.9-.42,12.76-10.08,23.17-22.5,24.78v13.4h8.46c3.06,0,5.55,2.48,5.55,5.53v.05H14.36v-.05c0-2.88,2.22-5.26,5.06-5.51.15-.01.31-.03.47-.03h8.09v-13.28c-12.97-1.09-23.22-11.74-23.65-24.9-.03-.29-.03-.6-.03-.9v-14.54h5.58v14.54c0,11.22,9.09,20.31,20.31,20.31s20.31-9.09,20.31-20.31v-14.54h5.58Z"/>
  </g>
  <path class="cls-1" d="M59.2,101.18c-12.72-7.66-18-3.18-31.21-2.36-5.93.23-13.23-.64-18.62-5.33C.59,86.55.05,71.42,9.9,62.8c.09,3.73,1.19,7.21,3.05,10.17-7.13,10.66,6.53,20.01,15.03,19.31,13.5-.82,21.88-2.97,31.21,8.9Z"/>
  <path class="cls-1" d="M24.79,13.24c3.65,1.93,16.75-.32,18.53-.67,2.77-.27,4.09-3.33,3.12-5.84C31.21-8.47-.32,3.82,0,26.1c.01,0,.03-.01,0,.01H0s.01.01.01.01c1.24,24.71,31.57,22.64,45.55,36.55.04-.69.06-1.2.06-1.4v-12.46c-9.88-5.88-23.4-6.9-31.11-14.13-7.33-7.77-.41-23.13,10.27-21.45ZM30.86,3.11c1.76-.03,3.09,1.75,2.59,3.43-.61,2.6-4.66,2.53-5.2-.06h-.01c-.43-1.68.87-3.39,2.63-3.37Z"/>
  <g>
    <path class="cls-2" d="M80.97,40.74h9.52c5.56,0,9.28,3.84,9.28,8.96s-3.72,8.96-9.28,8.96h-4.72v10.08h-4.8v-28.01ZM94.89,49.7c0-2.64-1.72-4.4-5-4.4h-4.12v8.8h4.12c3.28,0,5-1.76,5-4.4Z"/>
    <path class="cls-2" d="M103.7,72.71s1.28,1.24,2.52,1.24c1.64,0,2.32-.48,3.24-2.8l.76-1.96-9.24-19.4h5.32l6.4,13.88,5-13.88h5.16l-9.2,23.21c-1.64,4.16-4.32,5.44-7.12,5.44s-5.08-2-5.08-2l2.24-3.72Z"/>
    <path class="cls-2" d="M134.78,57.06c-4.12-1.44-8.76-3.68-8.76-8.88,0-3.96,3.52-7.92,9.16-7.92s9.12,4.44,9.12,4.44l-3.32,3.28s-2.32-3.16-5.8-3.16c-2.4,0-4.28,1.48-4.28,3.36,0,2.44,2.2,3.2,6.04,4.64,4.28,1.6,7.84,3.52,7.84,8.6s-4.48,7.8-9.76,7.8c-7,0-10.24-5.72-10.24-5.72l3.6-3.04s2.4,4.2,6.64,4.2c2.4,0,4.88-.96,4.88-3.24s-1.8-3.2-5.12-4.36Z"/>
    <path class="cls-2" d="M154.51,57.26l6.8-7.48h6.2l-8.32,8.96,8.88,10h-6.32l-7.24-8.28v8.28h-4.8v-30.25h4.8v18.76Z"/>
    <path class="cls-2" d="M183.56,49.9l-1.68,4.32s-.88-.44-2.28-.44c-2.92,0-4.24,2.56-4.24,2.56v12.4h-4.8v-18.96h4.56v2.76s1.64-3.24,5.16-3.24c1.72,0,3.28.6,3.28.6Z"/>
    <path class="cls-2" d="M186.68,72.71s1.28,1.24,2.52,1.24c1.64,0,2.32-.48,3.24-2.8l.76-1.96-9.24-19.4h5.32l6.4,13.88,5-13.88h5.16l-9.2,23.21c-1.64,4.16-4.32,5.44-7.12,5.44s-5.08-2-5.08-2l2.24-3.72Z"/>
    <path class="cls-2" d="M212.76,49.78v2.48s1.8-2.96,5.72-2.96c4.92,0,9.24,4.12,9.24,9.96s-4.32,9.96-9.24,9.96c-3,0-4.72-1.64-5.36-2.44v11.16h-4.8v-28.17h4.44ZM213.12,62.1s1.36,2.64,4.52,2.64,5.2-2.36,5.2-5.48-1.96-5.48-5.2-5.48-4.52,2.64-4.52,2.64v5.68Z"/>
    <path class="cls-2" d="M229.73,49.78h3.72v-5.64h4.8v5.64h5.72v4.32h-5.72v7.64c0,2.32,1.2,3,2.48,3,1.08,0,2-.68,2-.68l1.76,3.92s-1.8,1.24-4.56,1.24c-3.68,0-6.48-2.68-6.48-6.72v-8.4h-3.72v-4.32Z"/>
    <path class="cls-2" d="M266.86,59.26c0,5.56-4.48,9.96-10.12,9.96s-10.12-4.4-10.12-9.96,4.48-9.96,10.12-9.96,10.12,4.36,10.12,9.96ZM261.98,59.26c0-2.96-2-5.48-5.24-5.48s-5.24,2.52-5.24,5.48,2,5.48,5.24,5.48,5.24-2.52,5.24-5.48Z"/>
    <path class="cls-2" d="M283.38,49.9l-1.68,4.32s-.88-.44-2.28-.44c-2.92,0-4.24,2.56-4.24,2.56v12.4h-4.8v-18.96h4.56v2.76s1.64-3.24,5.16-3.24c1.72,0,3.28.6,3.28.6Z"/>
  </g>
</svg>