<?xml version="1.0" encoding="UTF-8"?>
<svg id="Warstwa_1" data-name="Warstwa 1" xmlns="http://www.w3.org/2000/svg" viewBox="0 0 59.24 106.86">
  <defs>
    <style>
      .cls-1 {
        fill: #70a82e;
      }

      .cls-2 {
        fill: #d2e5bb;
      }
    </style>
  </defs>
  <g>
    <path class="cls-1" d="M45.69,35.06v26.19c0,.2-.03.79-.08,1.57-.17,1.66-.6,3.25-1.27,4.71-2.41,5.38-7.81,9.13-14.08,9.13-8.51,0-15.42-6.9-15.42-15.41v-26.21c.01-8.5,6.92-15.38,15.42-15.38s15.42,6.9,15.42,15.41Z"/>
    <path class="cls-1" d="M56.14,47.7v14.53c0,.29,0,.6-.03.9-.42,12.75-10.07,23.15-22.49,24.77v13.39h8.46c3.06,0,5.54,2.48,5.54,5.53v.05H14.43v-.05c0-2.88,2.21-5.26,5.06-5.5.15-.01.31-.03.47-.03h8.09v-13.27c-12.97-1.09-23.2-11.74-23.64-24.88-.03-.29-.03-.6-.03-.9v-14.53h5.58v14.53c0,11.21,9.09,20.3,20.3,20.3s20.3-9.09,20.3-20.3v-14.53h5.58Z"/>
  </g>
  <path class="cls-2" d="M59.24,101.12c-12.71-7.65-17.99-3.18-31.19-2.35-5.93.23-13.22-.64-18.61-5.32-8.77-6.95-9.3-22.06.54-30.68.09,3.72,1.19,7.21,3.05,10.16-7.12,10.65,6.53,20,15.03,19.3,13.49-.82,21.87-2.97,31.2,8.9Z"/>
  <path class="cls-2" d="M24.86,13.23c3.65,1.93,16.74-.32,18.52-.67,2.76-.27,4.08-3.33,3.12-5.84C31.27-8.46-.24,3.81.08,26.08c.01,0,.03-.01,0,.01H.08s.01.01.01.01c1.24,24.7,31.55,22.63,45.53,36.53.04-.69.06-1.2.06-1.4v-12.45c-9.87-5.88-23.39-6.9-31.09-14.12-7.32-7.77-.41-23.11,10.26-21.44ZM30.93,3.11c1.76-.03,3.09,1.75,2.59,3.43-.61,2.59-4.66,2.53-5.2-.06h-.01c-.43-1.68.87-3.39,2.62-3.37Z"/>
</svg>