<?xml version="1.0" encoding="UTF-8"?>
<svg id="Warstwa_1" data-name="Warstwa 1" xmlns="http://www.w3.org/2000/svg" viewBox="0 0 59.24 106.92">
  <defs>
    <style>
      .cls-1 {
        fill: #70a82e;
      }

      .cls-2 {
        fill: #3a3f3a;
      }
    </style>
  </defs>
  <g>
    <path class="cls-2" d="M45.64,35.08v26.2c0,.2-.03.79-.08,1.58-.17,1.66-.6,3.25-1.27,4.71-2.41,5.38-7.81,9.13-14.09,9.13-8.52,0-15.43-6.9-15.43-15.42v-26.23c.01-8.5,6.93-15.39,15.43-15.39s15.43,6.9,15.43,15.42Z"/>
    <path class="cls-2" d="M56.09,47.73v14.54c0,.29,0,.6-.03.9-.42,12.76-10.08,23.17-22.5,24.78v13.4h8.46c3.06,0,5.55,2.48,5.55,5.53v.05H14.36v-.05c0-2.88,2.22-5.26,5.06-5.51.15-.01.31-.03.47-.03h8.09v-13.28c-12.97-1.09-23.22-11.74-23.65-24.9-.03-.29-.03-.6-.03-.9v-14.54h5.58v14.54c0,11.22,9.09,20.31,20.31,20.31s20.31-9.09,20.31-20.31v-14.54h5.58Z"/>
  </g>
  <path class="cls-1" d="M59.2,101.18c-12.72-7.66-18-3.18-31.21-2.36-5.93.23-13.23-.64-18.62-5.33C.59,86.55.05,71.42,9.9,62.8c.09,3.73,1.19,7.21,3.05,10.17-7.13,10.66,6.53,20.01,15.03,19.31,13.5-.82,21.88-2.97,31.21,8.9Z"/>
  <path class="cls-1" d="M24.79,13.24c3.65,1.93,16.75-.32,18.53-.67,2.77-.27,4.09-3.33,3.12-5.84C31.21-8.47-.32,3.82,0,26.1c.01,0,.03-.01,0,.01H0s.01.01.01.01c1.24,24.71,31.57,22.64,45.55,36.55.04-.69.06-1.2.06-1.4v-12.46c-9.88-5.88-23.4-6.9-31.11-14.13-7.33-7.77-.41-23.13,10.27-21.45ZM30.86,3.11c1.76-.03,3.09,1.75,2.59,3.43-.61,2.6-4.66,2.53-5.2-.06h-.01c-.43-1.68.87-3.39,2.63-3.37Z"/>
</svg>